<svg id="圖層_1" data-name="圖層 1" xmlns="http://www.w3.org/2000/svg" viewBox="0 0 724 560"><defs><style>.cls-1{fill:#6e3a2c;}.cls-2{fill:#dabc98;}.cls-3{fill:#b47846;}.cls-4{fill:#d8d8ce;}</style></defs><path class="cls-1" d="M183.38,428.47l-.13,1h1l.13-1Zm178-21.8h-2V187.47a64,64,0,0,0-63.89-63.88H175.14a64,64,0,0,0-63.9,63.88v219.2h-2.57a11.4,11.4,0,1,0,0,22.79h40.47v-1H108.67a10.41,10.41,0,1,1,0-20.81h3.57V187.47a63,63,0,0,1,62.9-62.89H295.43a63,63,0,0,1,62.9,62.89V407.66h3a10.41,10.41,0,1,1,0,20.81h-40v1h40a11.4,11.4,0,1,0,0-22.79Zm-75.23,21.8.14,1h1l-.13-1Z"/><path class="cls-1" d="M182.27,428.47l-.12.87v.12a.78.78,0,0,0,.09.43.86.86,0,0,0,.23.36,1.17,1.17,0,0,0,.79.33h1a.88.88,0,0,0,.43-.1.77.77,0,0,0,.36-.23l.17-.22a1.07,1.07,0,0,0,.16-.57l.11-.86,0-.13a.94.94,0,0,0-.1-.43.86.86,0,0,0-.23-.36,1.16,1.16,0,0,0-.79-.32h-1a.8.8,0,0,0-.43.09,1,1,0,0,0-.36.23.86.86,0,0,0-.23.36.82.82,0,0,0-.09.43l0,.3a1.13,1.13,0,0,0,1.08.82h1l-1.11-1.12-.12.87v.12l1.11-1.11h-1l1.12,1.11.11-.86v-.13a.82.82,0,0,0-.09-.43.86.86,0,0,0-.23-.36,1,1,0,0,0-.36-.23.8.8,0,0,0-.43-.09l-.3,0a1.14,1.14,0,0,0-.49.28l-.17.23A1.09,1.09,0,0,0,182.27,428.47Z"/><path class="cls-1" d="M361.34,405.56h-2l1.11,1.11v-211c0-7.37.11-14.63-1.45-21.91A65,65,0,0,0,295,122.48c-2.88,0-5.76,0-8.64,0H200.61q-12.6,0-25.2,0a65.56,65.56,0,0,0-50.65,24,66.41,66.41,0,0,0-14.63,42.36V406.67l1.11-1.11c-3.48,0-6.77.16-9.74,2.26a12.52,12.52,0,0,0,7.63,22.76c9.73,0,19.46,0,29.2,0h10.81a1.13,1.13,0,0,0,1.11-1.12v-1a1.13,1.13,0,0,0-1.11-1.11h-37c-3.88,0-7.6.06-10.47-3.16a9.38,9.38,0,0,1,.76-13c2.84-2.55,6.26-2.38,9.79-2.38a1.13,1.13,0,0,0,1.11-1.12V197.14c0-6.14-.26-12.4.62-18.48a61.78,61.78,0,0,1,61.61-53c2.92,0,5.84,0,8.75,0H269.7q12.69,0,25.38,0a62.38,62.38,0,0,1,49.75,24.7,61.75,61.75,0,0,1,11.92,29.42,78.24,78.24,0,0,1,.46,9.68V407.66a1.13,1.13,0,0,0,1.12,1.12c2.78,0,5.45-.13,7.92,1.41a9.29,9.29,0,0,1-4.94,17.17H321.37a1.14,1.14,0,0,0-1.12,1.11v1a1.13,1.13,0,0,0,1.12,1.12h37.92c.92,0,1.85,0,2.76,0a12.64,12.64,0,0,0,10.28-6.5c4.49-8.32-1.72-18.32-11-18.49a1.12,1.12,0,0,0,0,2.23c8.41.15,13.52,10.18,7.91,16.84a10.49,10.49,0,0,1-8.1,3.72H321.37l1.11,1.11v-1l-1.11,1.12h38.52a16.86,16.86,0,0,0,4.37-.38,11.51,11.51,0,0,0,3.78-20.5c-3-2.14-6.24-2.16-9.71-2.16l1.11,1.11V196.21c0-7,.17-13.91-1.15-20.83a64,64,0,0,0-63.23-51.91c-2.86,0-5.71,0-8.57,0H200.61q-12.62,0-25.21,0a64.12,64.12,0,0,0-63.35,53.15,73.46,73.46,0,0,0-.93,12.39V407.66l1.12-1.11c-2.94,0-5.82-.16-8.55,1.13a11.58,11.58,0,0,0-6.53,10.82c.26,6.54,5.75,11.07,12.08,11.09,9.79,0,19.57,0,29.36,0h10.54L148,428.47v1l1.12-1.11H108.8a10.49,10.49,0,0,1-7.94-3.6,10.29,10.29,0,0,1,6.22-16.85,27.5,27.5,0,0,1,4.16-.11,1.13,1.13,0,0,0,1.12-1.12V196.58c0-6.6-.24-13.25.9-19.78a62.75,62.75,0,0,1,62.34-52.09H295.06A62.85,62.85,0,0,1,357.5,178a73.44,73.44,0,0,1,.7,11.19V406.67a1.14,1.14,0,0,0,1.12,1.12h2A1.12,1.12,0,0,0,361.34,405.56Z"/><path class="cls-1" d="M285,428.77l.12.86,0,.13.11.27a.86.86,0,0,0,.29.31.49.49,0,0,0,.24.14.94.94,0,0,0,.43.1h1a.88.88,0,0,0,.43-.1.77.77,0,0,0,.36-.23l.18-.22a1.16,1.16,0,0,0,.15-.57l-.11-.86,0-.13a.94.94,0,0,0-.1-.43.77.77,0,0,0-.23-.36,1.15,1.15,0,0,0-.79-.32h-1a.82.82,0,0,0-.43.09,1,1,0,0,0-.35.23.88.88,0,0,0-.24.36.92.92,0,0,0-.09.43l0,.3a1.07,1.07,0,0,0,.29.49,1.13,1.13,0,0,0,.78.33h1L286,428.47l.11.87,0,.12,1.11-1.11h-1l1.08.82-.12-.87,0-.12a.82.82,0,0,0-.2-.38.86.86,0,0,0-.31-.29.8.8,0,0,0-.42-.13.74.74,0,0,0-.44,0l-.27.11a1.1,1.1,0,0,0-.4.4l-.11.27A1.18,1.18,0,0,0,285,428.77Z"/><path class="cls-1" d="M353.42,289.21a19.2,19.2,0,0,1-29.15,16.42,1.5,1.5,0,0,0-2,.53A98.83,98.83,0,0,1,296,338.52a97.47,97.47,0,0,1-146.32-29.25q-1.27-2.32-2.43-4.71a1.51,1.51,0,0,0-2.34-.3,19.2,19.2,0,1,1-8.88-34,1.51,1.51,0,0,0,1.88-1.44,97.14,97.14,0,0,1,1.45-24.49l-1.43,1.09h11.42a108.5,108.5,0,0,0,22.73-2.37,105.61,105.61,0,0,0,64.76-43.61h-2.56a105.3,105.3,0,0,0,85.44,46c4.21.06,8.43,0,12.65,0l-1.44-1.09a97.82,97.82,0,0,1,1.48,24.22,1.5,1.5,0,0,0,1.48,1.48c10.66-.31,19.45,8.68,19.53,19.18a1.49,1.49,0,0,0,3,0c-.1-12.07-10.23-22.51-22.51-22.15l1.49,1.49a100.8,100.8,0,0,0-1.58-25,1.49,1.49,0,0,0-1.43-1.09H321.58A104,104,0,0,1,299.06,240a102.4,102.4,0,0,1-42.48-20.62,104.2,104.2,0,0,1-19.74-21.45,1.5,1.5,0,0,0-2.56,0,102.37,102.37,0,0,1-84.55,44.51h-11.8a1.48,1.48,0,0,0-1.43,1.09,100.14,100.14,0,0,0-1.56,25.28l1.88-1.43a22.16,22.16,0,1,0,10.2,39l-2.34-.3a100.4,100.4,0,0,0,109,55,99.92,99.92,0,0,0,39.89-17,101.49,101.49,0,0,0,28.69-31.71q1.32-2.31,2.52-4.69l-2,.54a22.17,22.17,0,0,0,31.39-9.29,22.75,22.75,0,0,0,2.24-9.7A1.49,1.49,0,0,0,353.42,289.21Z"/><path class="cls-1" d="M207.81,373.73h54.82a1.49,1.49,0,0,0,0-3H207.81a1.49,1.49,0,0,0,0,3Z"/><polygon class="cls-1" points="297.98 513.93 297.95 513.93 297.95 513.72 297.98 513.93"/><path class="cls-1" d="M298,512.82h0l1.12,1.12v-.22h-2.23l0,.19v0a.76.76,0,0,0,.09.42.86.86,0,0,0,.23.36.77.77,0,0,0,.36.23.83.83,0,0,0,.43.1l.3,0a1.07,1.07,0,0,0,.49-.29l.17-.22a1,1,0,0,0,.16-.56l0-.19v0a.94.94,0,0,0-.1-.43.82.82,0,0,0-.23-.36,1,1,0,0,0-.36-.23.78.78,0,0,0-.43-.09l-.29,0a1.09,1.09,0,0,0-.49.28l-.18.23a1.09,1.09,0,0,0-.15.56v.22a1.29,1.29,0,0,0,.33.78l.22.18a1.12,1.12,0,0,0,.56.15h0a.78.78,0,0,0,.43-.1,1,1,0,0,0,.59-.59.87.87,0,0,0,.1-.42l0-.3a1.16,1.16,0,0,0-.29-.49l-.23-.18A1.09,1.09,0,0,0,298,512.82Z"/><polygon class="cls-1" points="298.55 514.43 297.46 514.43 297.46 513.72 297.95 513.69 297.95 513.44 297.97 513.69 298.44 513.66 298.55 514.43"/><path class="cls-1" d="M298.55,513.32h-1.09l1.11,1.11v-.71l-1.11,1.12.49,0a.78.78,0,0,0,.43-.09.86.86,0,0,0,.36-.23,1.17,1.17,0,0,0,.33-.79v-.25h-2.23v.25a.94.94,0,0,0,.1.43.77.77,0,0,0,.23.36l.23.17a1.09,1.09,0,0,0,.56.15l.47,0-1.11-1.11.1.77a.91.91,0,0,0,.1.43.77.77,0,0,0,.23.36.86.86,0,0,0,.36.23.88.88,0,0,0,.43.1l.29,0a1.2,1.2,0,0,0,.5-.29l.17-.23a1.09,1.09,0,0,0,.15-.56l-.1-.77a.78.78,0,0,0-.1-.43.77.77,0,0,0-.23-.36l-.22-.18a1.13,1.13,0,0,0-.57-.15l-.47,0,1.11,1.12v-.25a.91.91,0,0,0-.1-.43.77.77,0,0,0-.23-.36.86.86,0,0,0-.36-.23.88.88,0,0,0-.43-.1l-.29,0a1.11,1.11,0,0,0-.49.29,1.17,1.17,0,0,0-.33.79v.25l1.11-1.12-.49,0a.78.78,0,0,0-.43.09,1,1,0,0,0-.36.23,1.17,1.17,0,0,0-.33.79v.71a.91.91,0,0,0,.1.43.77.77,0,0,0,.23.36,1.17,1.17,0,0,0,.79.33h1.09a.94.94,0,0,0,.43-.1,1,1,0,0,0,.36-.23,1,1,0,0,0,.23-.36.8.8,0,0,0,.09-.43l0-.3a1.21,1.21,0,0,0-.28-.49A1.16,1.16,0,0,0,298.55,513.32Z"/><path class="cls-1" d="M289.62,447.33l-2.38-17.87-.13-1-2.91-21.93h-5.79V368.1H261.64v38.44H208.81V368.1H192v38.44h-5.74l-2.91,21.93-.13,1-2.38,17.87H172v67.1H298.45v-67.1ZM173,513.44V448.32h8.75l2.51-18.86.13-1,2.79-20.93H193V369.09h14.79v38.45h54.82V369.09h14.79v38.45h5.91l2.78,20.93.14,1,2.51,18.86h8.7v65.12Z"/><path class="cls-1" d="M174.1,513.44V448.32L173,449.43h8.75a1.14,1.14,0,0,0,1.12-1.11l4.32-32.51,1.1-8.27-1.11,1.11H193a1.14,1.14,0,0,0,1.12-1.11V369.09L193,370.2h14.79l-1.11-1.11v38.45a1.13,1.13,0,0,0,1.11,1.11h54.82a1.13,1.13,0,0,0,1.11-1.11V369.09l-1.11,1.11h14.79l-1.11-1.11v38.45a1.13,1.13,0,0,0,1.11,1.11h5.91l-1.12-1.11,2.4,18c.13.94.25,1.88.38,2.82.05.39.1.79.16,1.18s0-.32,0,0l.06.46,1.28,9.59,1.15,8.7a1.14,1.14,0,0,0,1.12,1.11h8.7l-1.12-1.11v65.12l1.12-1.12H188.26c-5,0-10.06-.19-15.06,0H173a1.12,1.12,0,0,0,0,2.23h109.2c5,0,10.05.2,15.06,0h.21a1.13,1.13,0,0,0,1.11-1.11V448.32a1.14,1.14,0,0,0-1.11-1.12h-8.7l1.11,1.12-2.34-17.64-.33-2.45c.07.56,0-.08,0-.2l-.2-1.49-1.43-10.73-1.1-8.27a1.14,1.14,0,0,0-1.11-1.12h-5.91l1.12,1.12V369.09a1.14,1.14,0,0,0-1.12-1.12H262.63a1.14,1.14,0,0,0-1.11,1.12v38.45l1.11-1.12H207.81l1.12,1.12V369.09a1.14,1.14,0,0,0-1.12-1.12H193a1.14,1.14,0,0,0-1.11,1.12v38.45l1.11-1.12h-5.85a1.15,1.15,0,0,0-1.12,1.12l-4.26,32.08-1.16,8.7,1.11-1.12H173a1.14,1.14,0,0,0-1.12,1.12v65.12A1.12,1.12,0,0,0,174.1,513.44Z"/><path class="cls-1" d="M290.74,447.33q-2.19-16.36-4.35-32.74l-1.07-8a1.15,1.15,0,0,0-1.12-1.11h-5.79l1.12,1.11V368.1a1.14,1.14,0,0,0-1.12-1.12H261.64a1.14,1.14,0,0,0-1.12,1.12v38.44l1.12-1.11H208.81l1.11,1.11V368.1a1.14,1.14,0,0,0-1.11-1.12H192a1.13,1.13,0,0,0-1.11,1.12v38.44l1.11-1.11h-5.74a1.15,1.15,0,0,0-1.11,1.11L181,438.4l-1.19,8.93,1.11-1.12H172a1.13,1.13,0,0,0-1.11,1.12v67.1a1.14,1.14,0,0,0,1.11,1.12H282.87c5.11,0,10.26.19,15.36,0h.22a1.14,1.14,0,0,0,1.11-1.12v-67.1a1.14,1.14,0,0,0-1.11-1.12h-8.83a1.12,1.12,0,0,0,0,2.23h8.83l-1.11-1.11v67.1l1.11-1.11H177.13a32.32,32.32,0,0,0-4.92,0H172l1.12,1.11v-67.1L172,448.44h8.88a1.15,1.15,0,0,0,1.12-1.11l4.35-32.74,1.07-8-1.12,1.12H192a1.13,1.13,0,0,0,1.11-1.12V368.1L192,369.21h16.78l-1.12-1.11v38.44a1.13,1.13,0,0,0,1.12,1.12h52.83a1.13,1.13,0,0,0,1.11-1.12V368.1l-1.11,1.11h16.77l-1.11-1.11v38.44a1.13,1.13,0,0,0,1.11,1.12h5.79l-1.11-1.12q2.12,15.93,4.23,31.86l1.19,8.93C288.69,448.73,290.92,448.75,290.74,447.33Z"/><path class="cls-1" d="M259.28,441.48H210.73l1.11,1.11V428.72l-1.11,1.11h48.55l-1.11-1.11v13.87a1.12,1.12,0,0,0,2.23,0V428.72a1.14,1.14,0,0,0-1.12-1.11H210.73a1.14,1.14,0,0,0-1.12,1.11v13.87a1.14,1.14,0,0,0,1.12,1.12h48.55A1.12,1.12,0,0,0,259.28,441.48Z"/><path class="cls-1" d="M259.28,441.1H210.73a.38.38,0,0,0-.27.64l1.12,1.12a.38.38,0,0,0,.64-.27V428.72a.38.38,0,0,0-.64-.27l-1.12,1.12a.38.38,0,0,0,.27.64h48.55a.38.38,0,0,0,.27-.64l-1.12-1.12a.38.38,0,0,0-.64.27v8.92c0,1.48,0,3,0,4.46,0,.66,0,1.28.62,1.68a1.52,1.52,0,0,0,2.33-.89,17,17,0,0,0,0-3.77V430c0-.88.17-1.9-.67-2.46s-1.76-.27-2.55-.27H212.72c-.91,0-2.31-.29-3,.44-.55.55-.44,1.33-.44,2v11.4a6.5,6.5,0,0,0,0,1.87,1.58,1.58,0,0,0,1.19,1.07,21.14,21.14,0,0,0,4.21,0h43.09c.82,0,2,.24,2.57-.46a1.52,1.52,0,0,0-1.07-2.52c-.48-.05-.48.71,0,.75a.7.7,0,0,1,.3,1.32,3.61,3.61,0,0,1-1.8.16H212.46a7.8,7.8,0,0,1-1.74-.11c-.8-.17-.68-.58-.73-1.37,0-.25,0-.5,0-.74V430.45c0-.47-.15-2,.22-2.25a4.12,4.12,0,0,1,2-.22h45.33c.32,0,.66,0,1,0,.7,0,1.21,0,1.37.73A10.46,10.46,0,0,1,260,431v9.66a8.74,8.74,0,0,1,0,2,.74.74,0,0,1-1.48,0,8.74,8.74,0,0,1,0-2V428.72l-.64.27L259,430.1l.26-.64H210.73l.26.64,1.12-1.11-.64-.27v13.87l.64-.26L211,441.21l-.26.64h48.55A.38.38,0,0,0,259.28,441.1Z"/><path class="cls-1" d="M198.94,285.54H158.61c-2.73,0-6,.41-8.65-.34a8.91,8.91,0,0,1-.47-17c2.72-.91,6.12-.48,8.95-.48h32.61c2.63,0,5.26,0,7.89,0a8.92,8.92,0,1,1,0,17.84,1.49,1.49,0,0,0,0,3,12.05,12.05,0,0,0,10.52-6.37,11.93,11.93,0,0,0-.57-12,12.1,12.1,0,0,0-10-5.4H162.87c-3.45,0-6.91,0-10.36,0-7.91.08-14,7.87-11.44,15.57a12,12,0,0,0,9.06,8,21.11,21.11,0,0,0,3.89.22h44.92A1.49,1.49,0,0,0,198.94,285.54Z"/><rect class="cls-1" x="160.54" y="265.72" width="30.22" height="21.8" rx="10.9"/><polygon class="cls-2" points="175.66 267.21 169.03 273.41 174.79 278.8 167.07 286.03 175.28 286.03 183.36 278.48 177.27 272.77 183.16 267.26 175.66 267.21"/><path class="cls-1" d="M314.87,285.54H274.54c-2.73,0-6,.41-8.65-.34a8.91,8.91,0,0,1-.47-17c2.72-.91,6.13-.48,8.95-.48H307c2.62,0,5.25,0,7.88,0a8.92,8.92,0,1,1,0,17.84,1.49,1.49,0,0,0,0,3,12.05,12.05,0,0,0,10.52-6.37,11.91,11.91,0,0,0-.57-12,12.1,12.1,0,0,0-10-5.4H278.8c-3.45,0-6.91,0-10.36,0-7.9.08-14,7.87-11.44,15.57a12,12,0,0,0,9.06,8,21.11,21.11,0,0,0,3.89.22h44.92A1.49,1.49,0,0,0,314.87,285.54Z"/><rect class="cls-1" x="276.48" y="265.72" width="30.22" height="21.8" rx="10.9"/><polygon class="cls-2" points="291.59 267.21 284.96 273.41 290.72 278.8 283 286.03 291.22 286.03 299.29 278.48 293.2 272.77 299.09 267.26 291.59 267.21"/><path class="cls-1" d="M229.47,103.65l-14,12.38-22.37,19.73-5.16,4.56c-1.44,1.26.67,3.36,2.1,2.1l14-12.38,22.37-19.73,5.15-4.55c1.44-1.27-.67-3.37-2.1-2.11Z"/><path class="cls-1" d="M254.73,103.65l-14,12.38-22.37,19.73-5.16,4.56c-1.44,1.26.67,3.36,2.1,2.1l14-12.38,22.37-19.73,5.16-4.55c1.44-1.27-.67-3.37-2.1-2.11Z"/><path class="cls-1" d="M280,103.65,266,116l-22.37,19.73-5.16,4.56c-1.43,1.26.68,3.36,2.11,2.1l14-12.38,22.37-19.73,5.16-4.55c1.43-1.27-.67-3.37-2.11-2.11Z"/><path class="cls-1" d="M454.48,499.57a13.06,13.06,0,0,1-13,13.37c-2.78,0-5.57,0-8.35,0H391.56l1.49,1.49V457.49c0-3.64,0-7.29,0-10.93a12.88,12.88,0,0,1,25.75-.5l1.49-1.49a12.49,12.49,0,0,0-7.5,2.06,11.45,11.45,0,0,0-4.65,7.07,35.9,35.9,0,0,0-.23,6.64V484c0,1.88,0,3.76,0,5.64a11.55,11.55,0,0,0,11,11.39c5.63.21,11.31,0,17,0,6.56,0,13.14.16,19.7,0H456a1.49,1.49,0,0,0,0-3h-35.7c-3.5,0-6.68-1.26-8.42-4.5-1.17-2.19-1-4.61-1-7V456.52c0-4,2.26-7.64,6.3-8.7a12,12,0,0,1,3.11-.27,1.5,1.5,0,0,0,1.48-1.49,15.84,15.84,0,0,0-28.56-8.95,16.48,16.48,0,0,0-3.13,10.09v53.25c0,4.58-.18,9.19,0,13.77v.21a1.51,1.51,0,0,0,1.48,1.49h24.28c8.56,0,17.13.07,25.69,0a16.1,16.1,0,0,0,15.93-16.35A1.49,1.49,0,0,0,454.48,499.57Z"/><path class="cls-1" d="M193,370.75c-5.23,0-10.52-.26-15.74.06a31.7,31.7,0,0,0-24.48,14.33,32.48,32.48,0,0,0-5,17.89v88c0,7.67-.2,15.36,0,23v.34a1.51,1.51,0,0,0,1.48,1.49H321.71a1.49,1.49,0,0,0,0-3H149.29l1.49,1.49V405a38.49,38.49,0,0,1,1-10.53A28.63,28.63,0,0,1,170.73,375c6.33-2,13.35-1.27,19.9-1.27H193a1.49,1.49,0,0,0,0-3Z"/><path class="cls-1" d="M277.42,373.73h12.4a39.76,39.76,0,0,1,6.72.38,28.42,28.42,0,0,1,22.85,21.16,37.35,37.35,0,0,1,.83,9.06v56.28c0,6.27-.2,12.58,0,18.84v.3a1.49,1.49,0,0,0,3,0V405.26a54.94,54.94,0,0,0-.28-7.25,31.35,31.35,0,0,0-31.11-27.26c-4.24,0-8.49,0-12.73,0h-1.65a1.49,1.49,0,0,0,0,3Z"/><path class="cls-1" d="M391.56,478.26H299.41a1.49,1.49,0,0,0,0,3h78c4.64,0,9.33.18,14,0h.21a1.49,1.49,0,0,0,0-3Z"/><path class="cls-1" d="M305.36,515.92H379c4.12,0,8.28.17,12.4,0h.18a1.49,1.49,0,0,0,0-3h-86.2a1.49,1.49,0,0,0,0,3Z"/><path class="cls-1" d="M454.48,456v43.6l1.49-1.49H419.73a8.63,8.63,0,0,1-8.85-8.94v-28c0-3.68-.55-7.81,2.14-10.77,3.1-3.43,7.58-2.82,11.74-2.82h16.15c4.26,0,8.86-.56,11.82,3.27a8.56,8.56,0,0,1,1.75,5.15c0,1.91,3,1.92,3,0a11.56,11.56,0,0,0-6.13-10.1,13.56,13.56,0,0,0-6.39-1.3H422.11a34.27,34.27,0,0,0-4.18.1,11.43,11.43,0,0,0-9.15,7,14.18,14.18,0,0,0-.87,5.62v29.83c0,1.08-.05,2.18,0,3.26a11.47,11.47,0,0,0,6.54,9.62c3.36,1.55,7.41,1.08,11,1.08H456a1.51,1.51,0,0,0,1.49-1.48V456A1.49,1.49,0,0,0,454.48,456Z"/><path class="cls-1" d="M422.77,362.83V322.5c0-2.73-.41-6,.34-8.66a8.92,8.92,0,0,1,17-.47c.91,2.73.48,6.13.48,8.95v32.62c0,2.63,0,5.26,0,7.88a8.92,8.92,0,0,1-17.84,0,1.49,1.49,0,0,0-3,0,12.08,12.08,0,0,0,6.37,10.52,12,12,0,0,0,12-.57,12.11,12.11,0,0,0,5.4-10c0-.92,0-1.84,0-2.76v-33.3c0-3.45,0-6.9,0-10.36-.07-7.9-7.86-14-15.56-11.44a12,12,0,0,0-8,9.07,22,22,0,0,0-.22,3.89v44.92A1.49,1.49,0,0,0,422.77,362.83Z"/><path class="cls-1" d="M412.87,363.32V323c0-2.73-.42-6,.33-8.65a8.91,8.91,0,0,1,17-.47c.91,2.72.48,6.13.48,8.95v32.61c0,2.63,0,5.26,0,7.89a8.92,8.92,0,1,1-17.83,0c0-1.91-3-1.91-3,0a12.05,12.05,0,0,0,6.37,10.52,11.93,11.93,0,0,0,12-.57,12.08,12.08,0,0,0,5.4-10c0-.92,0-1.84,0-2.76v-33.3c0-3.45,0-6.91,0-10.36-.07-7.91-7.86-14-15.56-11.44a12,12,0,0,0-8,9.06,22,22,0,0,0-.22,3.89v44.92A1.49,1.49,0,0,0,412.87,363.32Z"/><path class="cls-1" d="M433.67,363.32V323c0-2.73-.41-6,.34-8.65a8.91,8.91,0,0,1,17-.47c.91,2.72.48,6.13.48,8.95v32.61c0,2.63,0,5.26,0,7.89a8.92,8.92,0,0,1-17.84,0,1.49,1.49,0,0,0-3,0,12.05,12.05,0,0,0,6.37,10.52,11.93,11.93,0,0,0,12-.57,12.08,12.08,0,0,0,5.4-10c0-.92,0-1.84,0-2.76v-33.3c0-3.45,0-6.91,0-10.36-.07-7.91-7.86-14-15.56-11.44a12,12,0,0,0-8,9.06,22,22,0,0,0-.22,3.89v44.92A1.49,1.49,0,0,0,433.67,363.32Z"/><path class="cls-1" d="M438.63,363.32V323c0-2.73-.42-6,.33-8.65a8.91,8.91,0,0,1,17-.47c.92,2.72.48,6.13.48,8.95v32.61c0,2.63,0,5.26,0,7.89a8.92,8.92,0,1,1-17.83,0c0-1.91-3-1.91-3,0a11.89,11.89,0,0,0,23.78,0c0-.92,0-1.84,0-2.76v-33.3c0-3.45,0-6.91,0-10.36-.08-7.91-7.87-14-15.57-11.44a12,12,0,0,0-8,9.06,21.11,21.11,0,0,0-.22,3.89v44.92A1.49,1.49,0,0,0,438.63,363.32Z"/><path class="cls-1" d="M406.92,363.32V323c0-2.73-.41-6,.34-8.65a8.91,8.91,0,0,1,17-.47c.91,2.72.48,6.13.48,8.95v32.61c0,2.63,0,5.26,0,7.89a8.92,8.92,0,1,1-17.84,0,1.49,1.49,0,0,0-3,0,12.05,12.05,0,0,0,6.37,10.52,11.93,11.93,0,0,0,12-.57,12.1,12.1,0,0,0,5.4-10c0-.92,0-1.84,0-2.76v-33.3c0-3.45,0-6.91,0-10.36-.08-7.91-7.87-14-15.57-11.44a12,12,0,0,0-8,9.06,21.11,21.11,0,0,0-.22,3.89v44.92A1.49,1.49,0,0,0,406.92,363.32Z"/><path class="cls-1" d="M151.77,481.24H172a1.49,1.49,0,0,0,0-3H151.77a1.49,1.49,0,0,0,0,3Z"/><path class="cls-1" d="M420.18,501.05h23l-1.44-1.88a10.4,10.4,0,0,1-20.16,0,1.48,1.48,0,0,0-2.86.79,13.38,13.38,0,0,0,25.89,0,1.5,1.5,0,0,0-1.43-1.88h-23A1.49,1.49,0,0,0,420.18,501.05Z"/><path class="cls-1" d="M442.1,429.22v16.84l1.48-1.49H419.8l1.49,1.49V432.43a22.76,22.76,0,0,1,.36-5.95,10.41,10.41,0,0,1,20.45,2.74,1.49,1.49,0,0,0,3,0,13.38,13.38,0,0,0-23.57-8.66,14.37,14.37,0,0,0-3.18,9.52v16a1.51,1.51,0,0,0,1.48,1.49h23.78a1.51,1.51,0,0,0,1.49-1.49V429.22A1.49,1.49,0,0,0,442.1,429.22Z"/><path class="cls-1" d="M437.14,418V372.74a1.5,1.5,0,0,0-1.48-1.49h-7.93a1.51,1.51,0,0,0-1.49,1.49V418a1.49,1.49,0,0,0,3,0V372.74l-1.49,1.48h7.93l-1.49-1.48V418a1.49,1.49,0,0,0,3,0Z"/><path class="cls-1" d="M223.78,59.57a25.35,25.35,0,0,1-25.35,25.35,1.52,1.52,0,0,0-1.49,1.49v24.24l1.49-1.49H144.75l1.48,1.49V86.41a1.51,1.51,0,0,0-1.48-1.49,25.36,25.36,0,1,1,4.3-50.35,1.57,1.57,0,0,0,1.68-.69,25.36,25.36,0,0,1,41.71,0,1.58,1.58,0,0,0,1.68.69A25.64,25.64,0,0,1,222,50.05a26.07,26.07,0,0,1,1.83,9.52,1.49,1.49,0,0,0,3,0,28.65,28.65,0,0,0-21.18-27.42,29.42,29.42,0,0,0-12.25-.45l1.68.68a28.34,28.34,0,0,0-38.28-8.19,29.07,29.07,0,0,0-8.56,8.19l1.67-.68c-12.58-2.1-25.45,4.25-30.81,16a28.32,28.32,0,0,0,25.72,40.2l-1.49-1.48v24.24a1.51,1.51,0,0,0,1.49,1.49h53.68a1.5,1.5,0,0,0,1.48-1.49V86.41l-1.48,1.48a28.34,28.34,0,0,0,28.33-28.32A1.49,1.49,0,0,0,223.78,59.57Z"/><rect class="cls-1" x="174.07" y="318.82" width="9.91" height="21.62" rx="4.95" transform="translate(-180.65 223.13) rotate(-45)"/><rect class="cls-1" x="175.06" y="327.74" width="9.91" height="21.62" rx="4.95"/><circle class="cls-1" cx="160.19" cy="314.77" r="4.95"/><rect class="cls-1" x="455.47" y="303.96" width="9.91" height="21.62" rx="4.95" transform="translate(-87.72 417.77) rotate(-45)"/><rect class="cls-1" x="456.46" y="312.88" width="9.91" height="21.62" rx="4.95"/><circle class="cls-1" cx="441.6" cy="299.91" r="4.95"/><rect class="cls-1" x="237.48" y="469.44" width="9.91" height="21.62" rx="4.95" transform="translate(-268.58 312.09) rotate(-45)"/><rect class="cls-1" x="238.47" y="478.35" width="9.91" height="21.62" rx="4.95"/><circle class="cls-1" cx="223.61" cy="465.38" r="4.95"/><rect class="cls-3" x="0.66" y="515.92" width="723.34" height="43.6"/><path class="cls-4" d="M607.26,515.92H520.69a19.83,19.83,0,0,1-18.82-13.6L473.48,416.4a5,5,0,0,1,4.7-6.51H649.77a5,5,0,0,1,4.7,6.51l-28.39,85.92A19.83,19.83,0,0,1,607.26,515.92Z"/><rect class="cls-1" x="608.07" y="408.98" width="9.91" height="21.62" rx="4.95"/><rect class="cls-1" x="594.29" y="408.89" width="21.62" height="9.91" rx="4.95"/><rect class="cls-1" x="586.36" y="408.9" width="21.62" height="9.91" rx="4.95"/><circle class="cls-1" cx="512.03" cy="436.88" r="4.95"/></svg>